<svg version="1.1" xmlns="http://www.w3.org/2000/svg" xmlns:xlink="http://www.w3.org/1999/xlink" role="img" width="254" height="67" viewbox="0 0 254 67"><title>Licen </title><path fill="#fc428f" d="M15.40 9.20Q29.80 9.20 29.80 20.00Q29.80 30.80 37.00 30.80Q44.20 30.80 44.20 45.20Q44.20 59.60 22.60 59.60Q1 59.60 1 34.40Q1 9.20 15.40 9.20M15.40 16.40Q8.20 16.40 8.20 34.40Q8.20 52.40 22.60 52.40Q37.00 52.40 37.00 45.20Q37.00 38.00 29.80 38.00Q22.60 38.00 22.60 27.20Q22.60 16.40 15.40 16.40Z"></path><path fill="#6af72e" d="M61.40 9.20Q75.80 9.20 75.80 34.40Q75.80 59.60 61.40 59.60Q47.00 59.60 47.00 34.40Q47.00 9.20 61.40 9.20M61.40 16.40Q54.20 16.40 54.20 20.00Q54.20 23.60 61.40 23.60Q68.60 23.60 68.60 20.00Q68.60 16.40 61.40 16.40M61.40 30.80Q54.20 30.80 54.20 41.60Q54.20 52.40 61.40 52.40Q68.60 52.40 68.60 41.60Q68.60 30.80 61.40 30.80Z"></path><path fill="#6af72e" d="M100.20 16.40Q121.80 16.40 121.80 38.00Q121.80 59.60 100.20 59.60Q78.60 59.60 78.60 38.00Q78.60 16.40 100.20 16.40M100.20 23.60Q85.80 23.60 85.80 38.00Q85.80 52.40 100.20 52.40Q114.60 52.40 114.60 48.80Q114.60 45.20 107.40 45.20Q100.20 45.20 100.20 38.00Q100.20 30.80 103.80 30.80Q107.40 30.80 107.40 34.40Q107.40 38.00 111.00 38.00Q114.60 38.00 114.60 30.80Q114.60 23.60 100.20 23.60Z"></path><path fill="#6af72e" d="M146.20 16.40Q167.80 16.40 167.80 38.00Q167.80 59.60 146.20 59.60Q124.60 59.60 124.60 38.00Q124.60 16.40 146.20 16.40M146.20 23.60Q131.80 23.60 131.80 38.00Q131.80 52.40 146.20 52.40Q160.60 52.40 160.60 48.80Q160.60 45.20 157.00 45.20Q153.40 45.20 153.40 41.60Q153.40 38.00 157.00 38.00Q160.60 38.00 160.60 30.80Q160.60 23.60 146.20 23.60M139.00 38.00Q139.00 30.80 142.60 30.80Q146.20 30.80 146.20 38.00Q146.20 45.20 142.60 45.20Q139.00 45.20 139.00 38.00Z"></path><path fill="#6af72e" d="M192.20 16.40Q213.80 16.40 213.80 38.00Q213.80 59.60 192.20 59.60Q170.60 59.60 170.60 38.00Q170.60 16.40 192.20 16.40M192.20 23.60Q177.80 23.60 177.80 38.00Q177.80 52.40 185.00 52.40Q192.20 52.40 192.20 41.60Q192.20 30.80 195.80 30.80Q199.40 30.80 199.40 41.60Q199.40 52.40 203.00 52.40Q206.60 52.40 206.60 38.00Q206.60 23.60 192.20 23.60Z"></path></svg>